<mxfile host="app.diagrams.net" modified="2021-09-20T09:50:41.707Z" agent="5.0 (Macintosh; Intel Mac OS X 10_15_7) AppleWebKit/537.36 (KHTML, like Gecko) Chrome/93.0.4577.82 Safari/537.36" etag="yaMP3qzwJZBRJDT8_DBk" version="14.1.8" type="github">
  <diagram id="_Rcs_-87KFjw7JQ3LY1y">
    <mxGraphModel dx="1053" dy="540" grid="1" gridSize="10" guides="1" tooltips="1" connect="1" arrows="1" fold="1" page="1" pageScale="1" pageWidth="827" pageHeight="1169" math="0" shadow="0">
      <root>
        <mxCell id="0" />
        <mxCell id="1" parent="0" />
      </root>
    </mxGraphModel>
  </diagram>
</mxfile>
